<?xml version="1.0" ?><svg id="account-adult-person-customer" style="enable-background:new 0 0 15 15;" version="1.1" viewBox="0 0 15 15" xml:space="preserve" xmlns="http://www.w3.org/2000/svg" xmlns:xlink="http://www.w3.org/1999/xlink"><path d="M7.5,7C8.878,7,10,5.878,10,4.5v-2C10,1.122,8.878,0,7.5,0S5,1.122,5,2.5v2C5,5.878,6.122,7,7.5,7z M6,2.5  C6,1.673,6.673,1,7.5,1S9,1.673,9,2.5v2C9,5.327,8.327,6,7.5,6S6,5.327,6,4.5V2.5z"/><path d="M11.5,9h-8C1.57,9,0,10.57,0,12.5V15h15v-2.5C15,10.57,13.43,9,11.5,9z M14,14H1v-1.5C1,11.122,2.122,10,3.5,10h8  c1.378,0,2.5,1.122,2.5,2.5V14z"/></svg>